<?xml version="1.0" standalone="no"?>
<!DOCTYPE svg PUBLIC "-//W3C//DTD SVG 20010904//EN"
 "http://www.w3.org/TR/2001/REC-SVG-20010904/DTD/svg10.dtd">
<svg version="1.0" xmlns="http://www.w3.org/2000/svg"
 width="750.000000pt" height="750.000000pt" viewBox="0 0 750.000000 750.000000"
 preserveAspectRatio="xMidYMid meet">
<metadata>
Created by potrace 1.14, written by Peter Selinger 2001-2017
</metadata>
<g transform="translate(0.000000,750.000000) scale(0.100000,-0.100000)"
fill="#000000" stroke="none">
<path d="M3610 6944 c-109 -29 -192 -97 -325 -262 -32 -40 -74 -81 -94 -91
-60 -31 -75 -26 -253 83 -117 71 -221 104 -321 102 -233 -4 -392 -164 -461
-463 -19 -84 -43 -121 -82 -129 -28 -5 -86 0 -124 11 -40 12 -172 28 -230 28
-157 1 -286 -72 -364 -205 -36 -62 -40 -84 -41 -218 0 -110 6 -161 24 -226 29
-107 4 -175 -72 -194 -245 -62 -388 -149 -454 -278 -43 -83 -62 -193 -49 -282
11 -72 71 -205 144 -319 45 -69 57 -107 47 -151 -8 -36 -29 -60 -110 -125 -80
-63 -170 -158 -200 -209 -48 -83 -63 -145 -61 -253 5 -177 62 -276 246 -427
97 -79 117 -101 125 -137 10 -44 -2 -79 -52 -160 -155 -253 -181 -400 -97
-575 64 -135 173 -212 390 -275 139 -40 159 -58 151 -138 -6 -62 -15 -118 -23
-141 -15 -43 -21 -173 -12 -257 15 -131 120 -259 252 -308 81 -30 236 -26 396
9 71 16 92 17 123 7 36 -12 60 -52 72 -119 18 -102 97 -279 148 -332 124 -128
303 -174 462 -118 57 20 160 70 203 99 24 16 45 29 48 29 3 0 18 8 32 19 85
60 152 40 237 -74 119 -160 237 -249 357 -270 39 -7 156 -8 183 -2 139 33 221
93 356 262 66 82 86 101 119 113 36 14 91 -6 188 -67 201 -126 350 -160 487
-112 188 66 268 174 349 472 22 78 42 101 94 104 24 1 68 -4 100 -11 94 -22
123 -26 216 -29 150 -4 229 25 322 119 81 83 107 153 109 284 1 51 -5 121 -12
155 -29 137 -35 200 -23 231 9 26 49 51 91 60 257 53 402 159 468 341 55 151
25 288 -111 507 -26 43 -53 98 -60 123 -17 63 3 99 97 176 213 175 274 274
276 444 0 92 -9 134 -46 211 -29 58 -52 87 -126 155 -197 182 -209 195 -209
231 0 41 37 118 109 228 9 14 29 54 43 90 70 171 70 278 -3 422 -39 77 -108
142 -199 188 -73 36 -105 48 -239 86 -91 26 -110 60 -91 163 27 138 31 171 35
246 6 142 -26 236 -110 321 -56 56 -132 100 -192 110 -85 14 -225 7 -318 -16
-22 -5 -65 -12 -96 -16 -86 -9 -108 16 -144 171 -23 102 -86 227 -144 288 -97
103 -246 152 -385 128 -73 -12 -219 -78 -326 -146 -122 -78 -166 -68 -265 60
-58 75 -155 174 -200 203 -99 66 -253 89 -375 56z"/>
</g>
</svg>
